<mxfile host="app.diagrams.net" modified="2024-03-04T16:43:45.123Z" agent="Mozilla/5.0 (Windows NT 10.0; Win64; x64) AppleWebKit/537.36 (KHTML, like Gecko) Chrome/122.0.0.0 Safari/537.36" etag="3qsHtEgkzR9qWaGrCS0R" version="24.0.1" type="device">
  <diagram name="Página-1" id="wpBMKL1yNlphGXhXngKj">
    <mxGraphModel dx="1050" dy="565" grid="1" gridSize="10" guides="1" tooltips="1" connect="1" arrows="1" fold="1" page="1" pageScale="1" pageWidth="827" pageHeight="1169" math="0" shadow="0">
      <root>
        <mxCell id="0" />
        <mxCell id="1" parent="0" />
        <mxCell id="AU8egb_JV9DoVUxpJmC8-1" value="&lt;font style=&quot;font-size: 20px;&quot;&gt;X&amp;gt;Y&lt;/font&gt;" style="rhombus;whiteSpace=wrap;html=1;" vertex="1" parent="1">
          <mxGeometry x="369" y="310" width="150" height="150" as="geometry" />
        </mxCell>
        <mxCell id="AU8egb_JV9DoVUxpJmC8-12" value="" style="edgeStyle=orthogonalEdgeStyle;rounded=0;orthogonalLoop=1;jettySize=auto;html=1;" edge="1" parent="1" source="AU8egb_JV9DoVUxpJmC8-2" target="AU8egb_JV9DoVUxpJmC8-1">
          <mxGeometry relative="1" as="geometry" />
        </mxCell>
        <mxCell id="AU8egb_JV9DoVUxpJmC8-2" value="&lt;font style=&quot;font-size: 20px;&quot;&gt;Bloco&lt;/font&gt;" style="rounded=0;whiteSpace=wrap;html=1;" vertex="1" parent="1">
          <mxGeometry x="384" y="185" width="120" height="60" as="geometry" />
        </mxCell>
        <mxCell id="AU8egb_JV9DoVUxpJmC8-3" value="" style="endArrow=classic;html=1;rounded=0;exitX=1;exitY=0.5;exitDx=0;exitDy=0;" edge="1" parent="1" source="AU8egb_JV9DoVUxpJmC8-1" target="AU8egb_JV9DoVUxpJmC8-2">
          <mxGeometry width="50" height="50" relative="1" as="geometry">
            <mxPoint x="420" y="300" as="sourcePoint" />
            <mxPoint x="530" y="215" as="targetPoint" />
            <Array as="points">
              <mxPoint x="580" y="385" />
              <mxPoint x="580" y="215" />
            </Array>
          </mxGeometry>
        </mxCell>
        <mxCell id="AU8egb_JV9DoVUxpJmC8-16" value="SIM" style="edgeLabel;html=1;align=center;verticalAlign=middle;resizable=0;points=[];" vertex="1" connectable="0" parent="AU8egb_JV9DoVUxpJmC8-3">
          <mxGeometry x="-0.8059" y="1" relative="1" as="geometry">
            <mxPoint as="offset" />
          </mxGeometry>
        </mxCell>
        <mxCell id="AU8egb_JV9DoVUxpJmC8-4" value="&lt;font style=&quot;font-size: 20px;&quot;&gt;ínicio&lt;/font&gt;" style="strokeWidth=2;html=1;shape=mxgraph.flowchart.terminator;whiteSpace=wrap;" vertex="1" parent="1">
          <mxGeometry x="394" y="60" width="100" height="60" as="geometry" />
        </mxCell>
        <mxCell id="AU8egb_JV9DoVUxpJmC8-5" value="" style="endArrow=classic;html=1;rounded=0;exitX=0.5;exitY=1;exitDx=0;exitDy=0;exitPerimeter=0;entryX=0.5;entryY=0;entryDx=0;entryDy=0;" edge="1" parent="1" source="AU8egb_JV9DoVUxpJmC8-4" target="AU8egb_JV9DoVUxpJmC8-2">
          <mxGeometry width="50" height="50" relative="1" as="geometry">
            <mxPoint x="420" y="290" as="sourcePoint" />
            <mxPoint x="444" y="170" as="targetPoint" />
          </mxGeometry>
        </mxCell>
        <mxCell id="AU8egb_JV9DoVUxpJmC8-8" value="" style="endArrow=classic;html=1;rounded=0;exitX=0;exitY=0.5;exitDx=0;exitDy=0;entryX=1;entryY=0.5;entryDx=0;entryDy=0;entryPerimeter=0;" edge="1" parent="1" source="AU8egb_JV9DoVUxpJmC8-1" target="AU8egb_JV9DoVUxpJmC8-10">
          <mxGeometry relative="1" as="geometry">
            <mxPoint x="350" y="215" as="sourcePoint" />
            <mxPoint x="290" y="215" as="targetPoint" />
          </mxGeometry>
        </mxCell>
        <mxCell id="AU8egb_JV9DoVUxpJmC8-9" value="NÃO" style="edgeLabel;resizable=0;html=1;;align=center;verticalAlign=middle;" connectable="0" vertex="1" parent="AU8egb_JV9DoVUxpJmC8-8">
          <mxGeometry relative="1" as="geometry" />
        </mxCell>
        <mxCell id="AU8egb_JV9DoVUxpJmC8-10" value="&lt;span style=&quot;font-size: 20px;&quot;&gt;Fim&lt;/span&gt;" style="strokeWidth=2;html=1;shape=mxgraph.flowchart.terminator;whiteSpace=wrap;" vertex="1" parent="1">
          <mxGeometry x="190" y="355" width="100" height="60" as="geometry" />
        </mxCell>
      </root>
    </mxGraphModel>
  </diagram>
</mxfile>
